# xmcd CD database file
#
# Track frame offsets:
#	150
#	18178
#	37736
#	62462
#	78722
#	97167
#	109310
#	129300
#	145400
#	165934
#	187921
#	202241
#	228271
#	246837
#	260799
#	281718
#	305441
#
# Disc length: 4296 seconds
#
# Revision: 1
# Processed by: cddbd v1.5.2PL0 Copyright (c) Steve Scherf et al.
# Submitted via: CDex 1.51
#
DISCID=ec10c611
DTITLE=Various Artist - Iowa Blues 5
DYEAR=1900
DGENRE=Blues
TTITLE0=Billylee Janey Group-Everyone has the blues
TTITLE1=J C Anderson Band-Don't Abuse Me
TTITLE2=Don Boyle Band-What I like to do
TTITLE3=Effie Burt-let the blues walk on by
TTITLE4=Patrick Hazell-ain't been the first time
TTITLE5=McMurrin and Johnson-the daddy o stomp
TTITLE6=Dangerous Blues-missing me bad blues
TTITLE7=Delta Drifters-don't come round
TTITLE8=Wild Turkey Hawk Allstar Jam Band-take the wild ride
TTITLE9=Bryce Janey-long time runnin
TTITLE10=Gary Gibson Group-the blues is alright with me
TTITLE11=Pace Band-jazzmanian devil
TTITLE12=Erick Hovey-blues and love
TTITLE13=Blues Band-santa brought the house down
TTITLE14=Flat Cat-mamas song
TTITLE15=Big foot Chester-howlin wolf blues
TTITLE16=Craig Erickson-who can take me higher
EXTD=
EXTT0=
EXTT1=
EXTT2=
EXTT3=
EXTT4=
EXTT5=
EXTT6=
EXTT7=
EXTT8=
EXTT9=
EXTT10=
EXTT11=
EXTT12=
EXTT13=
EXTT14=
EXTT15=
EXTT16=
PLAYORDER=
